<svg width="18" height="17" viewBox="0 0 18 17" fill="none" xmlns="http://www.w3.org/2000/svg">
<path d="M3.52632 11.6787H1.84211V8.25015M1 1.39307H10.2632V11.6787M6.89474 11.6787H11.9474M15.3158 11.6787H17V6.53588M17 6.53588H10.2632M17 6.53588L14.4737 2.2502H10.2632M1.84211 4.82161H5.21053" stroke="#474A4F" stroke-linecap="round" stroke-linejoin="round"/>
<path d="M3.10547 13.393C3.10547 13.8476 3.28291 14.2837 3.59876 14.6052C3.91461 14.9266 4.343 15.1073 4.78968 15.1073C5.23636 15.1073 5.66474 14.9266 5.9806 14.6052C6.29645 14.2837 6.47389 13.8476 6.47389 13.393C6.47389 12.9383 6.29645 12.5023 5.9806 12.1808C5.66474 11.8593 5.23636 11.6787 4.78968 11.6787C4.343 11.6787 3.91461 11.8593 3.59876 12.1808C3.28291 12.5023 3.10547 12.9383 3.10547 13.393ZM11.5265 13.393C11.5265 13.8476 11.704 14.2837 12.0198 14.6052C12.3357 14.9266 12.7641 15.1073 13.2107 15.1073C13.6574 15.1073 14.0858 14.9266 14.4016 14.6052C14.7175 14.2837 14.8949 13.8476 14.8949 13.393C14.8949 12.9383 14.7175 12.5023 14.4016 12.1808C14.0858 11.8593 13.6574 11.6787 13.2107 11.6787C12.7641 11.6787 12.3357 11.8593 12.0198 12.1808C11.704 12.5023 11.5265 12.9383 11.5265 13.393Z" stroke="#474A4F" stroke-linecap="round" stroke-linejoin="round"/>
</svg>
