<svg width="18" height="18" viewBox="0 0 18 18" fill="none" xmlns="http://www.w3.org/2000/svg">
<path d="M9 17.25C13.4183 17.25 17 13.6683 17 9.25C17 4.83172 13.4183 1.25 9 1.25C4.58172 1.25 1 4.83172 1 9.25C1 13.6683 4.58172 17.25 9 17.25Z" stroke="#474A4F" stroke-linecap="round" stroke-linejoin="round"/>
<path d="M1 9.25H17" stroke="#474A4F" stroke-linecap="round" stroke-linejoin="round"/>
<path d="M8.9998 17.25C10.7671 17.25 12.1998 13.6683 12.1998 9.25C12.1998 4.83172 10.7671 1.25 8.9998 1.25C7.23248 1.25 5.7998 4.83172 5.7998 9.25C5.7998 13.6683 7.23248 17.25 8.9998 17.25Z" stroke="#474A4F" stroke-linecap="round" stroke-linejoin="round"/>
<path d="M3.34277 3.70703C4.79049 5.15475 6.79049 6.05019 8.99961 6.05019C11.2088 6.05019 13.2088 5.15475 14.6565 3.70703" stroke="#474A4F" stroke-linecap="round" stroke-linejoin="round"/>
<path d="M14.6565 14.7924C13.2088 13.3447 11.2088 12.4492 8.99961 12.4492C6.79049 12.4492 4.79049 13.3447 3.34277 14.7924" stroke="#474A4F" stroke-linecap="round" stroke-linejoin="round"/>
</svg>
