<svg width="105" height="36" viewBox="0 0 105 36" fill="none" xmlns="http://www.w3.org/2000/svg">
<path d="M0.214469 9.28078C0.147681 9.24243 0.14768 9.14615 0.214469 9.10779L15.1803 0.513268C15.2111 0.495577 15.249 0.495578 15.2798 0.513268L30.3959 9.19414L15.2795 17.8751C15.2487 17.8928 15.2108 17.8928 15.18 17.8751L0.214469 9.28078Z" fill="#FFC600"/>
<path d="M15.2311 35.3281L30.3458 26.6459C30.3768 26.6281 30.3959 26.5951 30.3959 26.5594V9.19414L15.2311 17.9051L15.2302 17.9045L0.213084 9.2802C0.146522 9.24197 0.0634887 9.28998 0.0634887 9.36669V26.5595C0.0634887 26.5953 0.0825929 26.6282 0.11358 26.646L15.2311 35.3281Z" fill="#FFC600"/>
<path d="M0 9.21281L15.1487 0.513334C15.1795 0.495643 15.2174 0.495643 15.2482 0.513334L18.953 2.64091C19.0197 2.67923 19.0198 2.7754 18.9531 2.81383L3.9664 11.4496C3.93548 11.4674 3.91643 11.5003 3.91643 11.536V15.7075C3.91643 15.7425 3.93484 15.775 3.96491 15.793L7.49483 17.9093C7.56138 17.9492 7.64604 17.9013 7.64604 17.8237V13.5859C7.64604 13.5501 7.66526 13.517 7.6964 13.4993L22.7841 4.89785C22.8149 4.88031 22.8526 4.88037 22.8833 4.89801L30.2456 9.126C30.3124 9.16436 30.3124 9.26064 30.2456 9.299L15.1986 17.9411L15.1997 17.9417L30.2466 9.29851C30.3131 9.26028 30.3962 9.30829 30.3962 9.385V26.6145C30.3962 26.6502 30.3771 26.6832 30.3461 26.701L15.1996 35.4014L15.1985 35.4008L11.4971 33.2747C11.4303 33.2363 11.4303 33.1402 11.4969 33.1017L26.3373 24.5503C26.3683 24.5325 26.3873 24.4996 26.3873 24.4639V20.2924C26.3873 20.2574 26.3689 20.2249 26.3388 20.2069L22.8089 18.0906C22.7424 18.0507 22.6577 18.0986 22.6577 18.1761V22.414C22.6577 22.4498 22.6385 22.4829 22.6073 22.5006L7.66675 31.0182C7.63599 31.0357 7.59823 31.0357 7.56752 31.018L0.0500915 26.7009C0.0191042 26.6831 0 26.6501 0 26.6144V9.21281Z" fill="#062076"/>
<path d="M42.5734 4.12925V21.9412H38.8654V4.12925H42.5734Z" fill="#08111E"/>
<path d="M45.5437 21.9412V8.58224H49.2517V21.9412H45.5437ZM47.4064 6.86019C46.8552 6.86019 46.3822 6.67755 45.9876 6.31226C45.5988 5.94118 45.4045 5.49762 45.4045 4.98158C45.4045 4.47134 45.5988 4.03358 45.9876 3.6683C46.3822 3.29722 46.8552 3.11167 47.4064 3.11167C47.9577 3.11167 48.4277 3.29722 48.8165 3.6683C49.2111 4.03358 49.4084 4.47134 49.4084 4.98158C49.4084 5.49762 49.2111 5.94118 48.8165 6.31226C48.4277 6.67755 47.9577 6.86019 47.4064 6.86019Z" fill="#08111E"/>
<path d="M55.93 14.2181V21.9412H52.222V8.58224H55.7559V10.9392H55.9126C56.2086 10.1622 56.7047 9.54764 57.401 9.09538C58.0974 8.63733 58.9417 8.4083 59.934 8.4083C60.8624 8.4083 61.6719 8.61124 62.3624 9.01711C63.053 9.42298 63.5897 10.0028 63.9727 10.7566C64.3557 11.5045 64.5472 12.3974 64.5472 13.4353V21.9412H60.8392V14.0963C60.845 13.2788 60.6361 12.641 60.2125 12.1829C59.7889 11.7191 59.2057 11.4871 58.4629 11.4871C57.9639 11.4871 57.5229 11.5944 57.1399 11.8089C56.7627 12.0235 56.4668 12.3366 56.2521 12.7482C56.0432 13.1541 55.9358 13.644 55.93 14.2181Z" fill="#08111E"/>
<path d="M73.5103 22.2021C72.1409 22.2021 70.9629 21.9122 69.9764 21.3324C68.9958 20.7468 68.2414 19.9351 67.7133 18.8972C67.1911 17.8593 66.93 16.6649 66.93 15.3139C66.93 13.9455 67.194 12.7453 67.722 11.7133C68.2559 10.6754 69.0132 9.86654 69.9939 9.28672C70.9745 8.70111 72.1409 8.4083 73.4929 8.4083C74.6593 8.4083 75.6806 8.61993 76.5568 9.0432C77.433 9.46646 78.1265 10.0608 78.6371 10.8261C79.1478 11.5915 79.4292 12.4902 79.4814 13.5223H75.9823C75.8837 12.8555 75.6226 12.3192 75.199 11.9133C74.7812 11.5016 74.2328 11.2958 73.5539 11.2958C72.9794 11.2958 72.4774 11.4523 72.048 11.7654C71.6244 12.0727 71.2937 12.5221 71.0558 13.1135C70.8178 13.7049 70.6989 14.421 70.6989 15.2617C70.6989 16.1141 70.8149 16.8388 71.0471 17.436C71.285 18.0333 71.6186 18.4884 72.048 18.8015C72.4774 19.1146 72.9794 19.2712 73.5539 19.2712C73.9775 19.2712 74.3576 19.1842 74.6941 19.0102C75.0365 18.8363 75.3179 18.5841 75.5384 18.2536C75.7647 17.9173 75.9127 17.5143 75.9823 17.0447H79.4814C79.4234 18.0651 79.1449 18.9639 78.6458 19.7408C78.1526 20.512 77.4708 21.115 76.6003 21.5498C75.7299 21.9847 74.6999 22.2021 73.5103 22.2021Z" fill="#08111E"/>
<path d="M87.8962 22.2021C86.5442 22.2021 85.3749 21.9151 84.3884 21.3411C83.4078 20.7613 82.6505 19.9553 82.1166 18.9233C81.5828 17.8854 81.3158 16.6823 81.3158 15.3139C81.3158 13.934 81.5828 12.7279 82.1166 11.6959C82.6505 10.658 83.4078 9.85204 84.3884 9.27802C85.3749 8.69821 86.5442 8.4083 87.8962 8.4083C89.2483 8.4083 90.4146 8.69821 91.3953 9.27802C92.3818 9.85204 93.142 10.658 93.6758 11.6959C94.2097 12.7279 94.4766 13.934 94.4766 15.3139C94.4766 16.6823 94.2097 17.8854 93.6758 18.9233C93.142 19.9553 92.3818 20.7613 91.3953 21.3411C90.4146 21.9151 89.2483 22.2021 87.8962 22.2021ZM87.9136 19.332C88.5287 19.332 89.0423 19.1581 89.4543 18.8102C89.8663 18.4565 90.1767 17.9753 90.3856 17.3665C90.6003 16.7577 90.7077 16.0648 90.7077 15.2878C90.7077 14.5109 90.6003 13.818 90.3856 13.2092C90.1767 12.6004 89.8663 12.1191 89.4543 11.7654C89.0423 11.4117 88.5287 11.2349 87.9136 11.2349C87.2927 11.2349 86.7705 11.4117 86.3469 11.7654C85.9291 12.1191 85.6128 12.6004 85.3981 13.2092C85.1892 13.818 85.0848 14.5109 85.0848 15.2878C85.0848 16.0648 85.1892 16.7577 85.3981 17.3665C85.6128 17.9753 85.9291 18.4565 86.3469 18.8102C86.7705 19.1581 87.2927 19.332 87.9136 19.332Z" fill="#08111E"/>
<path d="M96.8877 21.9412V8.58224H100.483V10.9131H100.622C100.866 10.084 101.275 9.45777 101.849 9.0345C102.424 8.60544 103.085 8.3909 103.834 8.3909C104.019 8.3909 104.22 8.4025 104.434 8.42569C104.649 8.44889 104.838 8.48078 105 8.52136V11.8089C104.826 11.7567 104.585 11.7104 104.278 11.6698C103.97 11.6292 103.689 11.6089 103.433 11.6089C102.888 11.6089 102.4 11.7277 101.971 11.9655C101.547 12.1974 101.211 12.5221 100.961 12.9396C100.718 13.357 100.596 13.8383 100.596 14.3833V21.9412H96.8877Z" fill="#08111E"/>
<path d="M40.1413 24.2086V32.9152H39.384V24.2086H40.1413Z" fill="#474A4F"/>
<path d="M46.842 33.0513C46.2775 33.0513 45.7783 32.9081 45.3443 32.6219C44.9132 32.3356 44.5756 31.9403 44.3317 31.4358C44.0877 30.9284 43.9658 30.3432 43.9658 29.68C43.9658 29.0111 44.0877 28.423 44.3317 27.9157C44.5756 27.4055 44.9132 27.0088 45.3443 26.7253C45.7783 26.4391 46.2775 26.296 46.842 26.296C47.4064 26.296 47.9042 26.4391 48.3354 26.7253C48.7665 27.0116 49.104 27.4084 49.348 27.9157C49.5947 28.423 49.7181 29.0111 49.7181 29.68C49.7181 30.3432 49.5962 30.9284 49.3522 31.4358C49.1083 31.9403 48.7693 32.3356 48.3354 32.6219C47.9042 32.9081 47.4064 33.0513 46.842 33.0513ZM46.842 32.3583C47.2958 32.3583 47.6801 32.2364 47.995 31.9927C48.3098 31.7489 48.5481 31.4244 48.7098 31.0191C48.8743 30.6139 48.9565 30.1675 48.9565 29.68C48.9565 29.1925 48.8743 28.7447 48.7098 28.3366C48.5481 27.9285 48.3098 27.6011 47.995 27.3545C47.6801 27.108 47.2958 26.9847 46.842 26.9847C46.391 26.9847 46.0066 27.108 45.6889 27.3545C45.3741 27.6011 45.1344 27.9285 44.9699 28.3366C44.8082 28.7447 44.7274 29.1925 44.7274 29.68C44.7274 30.1675 44.8082 30.6139 44.9699 31.0191C45.1344 31.4244 45.3741 31.7489 45.6889 31.9927C46.0038 32.2364 46.3881 32.3583 46.842 32.3583Z" fill="#474A4F"/>
<path d="M56.0305 35.5C55.5852 35.5 55.1952 35.4419 54.8605 35.3257C54.5258 35.2123 54.2435 35.0564 54.0138 34.8581C53.784 34.6597 53.6053 34.4372 53.4777 34.1906L54.0989 33.7825C54.1925 33.9469 54.3173 34.1084 54.4733 34.2671C54.6321 34.4258 54.8378 34.5576 55.0902 34.6625C55.3455 34.7674 55.6589 34.8198 56.0305 34.8198C56.6091 34.8198 57.0757 34.6752 57.4303 34.3862C57.7877 34.0971 57.9664 33.6479 57.9664 33.0385V31.5676H57.8983C57.8104 31.766 57.6842 31.9643 57.5197 32.1627C57.3551 32.3583 57.1396 32.5213 56.8729 32.6516C56.6091 32.782 56.2815 32.8472 55.8901 32.8472C55.3682 32.8472 54.9044 32.7182 54.4988 32.4603C54.096 32.2024 53.7784 31.834 53.5458 31.355C53.316 30.8732 53.2011 30.2993 53.2011 29.6332C53.2011 28.9729 53.3132 28.3918 53.5373 27.8902C53.7642 27.3885 54.0804 26.9974 54.4861 26.7168C54.8917 26.4363 55.3639 26.296 55.9029 26.296C56.3028 26.296 56.6347 26.3668 56.8985 26.5085C57.1623 26.6474 57.3736 26.8203 57.5324 27.0272C57.6941 27.2341 57.8203 27.4353 57.9111 27.6309H57.9877V26.3852H58.728V33.0853C58.728 33.6379 58.6103 34.0928 58.3748 34.4499C58.1394 34.807 57.8189 35.0706 57.4133 35.2407C57.0077 35.4136 56.5467 35.5 56.0305 35.5ZM55.9795 32.1542C56.3993 32.1542 56.7581 32.0536 57.0559 31.8524C57.3537 31.6483 57.5821 31.3564 57.7409 30.9766C57.8997 30.5968 57.9792 30.1448 57.9792 29.6205C57.9792 29.1103 57.9012 28.6583 57.7452 28.2643C57.5891 27.8675 57.3622 27.5558 57.0644 27.329C56.7694 27.0995 56.4078 26.9847 55.9795 26.9847C55.5426 26.9847 55.1739 27.1023 54.8732 27.3375C54.5726 27.5728 54.3457 27.8902 54.1925 28.2898C54.0393 28.6866 53.9627 29.1302 53.9627 29.6205C53.9627 30.1193 54.0407 30.56 54.1967 30.9426C54.3527 31.3224 54.5811 31.62 54.8817 31.8354C55.1824 32.048 55.5483 32.1542 55.9795 32.1542Z" fill="#474A4F"/>
<path d="M62.8981 32.9152V26.3852H63.6597V32.9152H62.8981ZM63.2853 25.2629C63.1293 25.2629 62.996 25.2105 62.8854 25.1056C62.7747 24.9979 62.7194 24.8689 62.7194 24.7187C62.7194 24.5685 62.7747 24.441 62.8854 24.3361C62.996 24.2284 63.1293 24.1746 63.2853 24.1746C63.4413 24.1746 63.5746 24.2284 63.6853 24.3361C63.7959 24.441 63.8512 24.5685 63.8512 24.7187C63.8512 24.8689 63.7959 24.9979 63.6853 25.1056C63.5746 25.2105 63.4413 25.2629 63.2853 25.2629Z" fill="#474A4F"/>
<path d="M72.2101 27.8179L71.5166 28.0135C71.4485 27.8179 71.3521 27.6408 71.2272 27.4821C71.1024 27.3234 70.9393 27.1972 70.738 27.1037C70.5394 27.0102 70.2926 26.9634 69.9976 26.9634C69.5552 26.9634 69.1921 27.0683 68.9084 27.278C68.6248 27.4877 68.483 27.7584 68.483 28.09C68.483 28.3706 68.5794 28.5987 68.7723 28.7745C68.968 28.9473 69.2687 29.0848 69.6743 29.1868L70.6614 29.4292C71.2088 29.5624 71.6187 29.7735 71.891 30.0626C72.1661 30.3517 72.3037 30.7145 72.3037 31.1509C72.3037 31.5194 72.2016 31.8467 71.9974 32.133C71.7931 32.4192 71.5081 32.6446 71.1422 32.8089C70.7791 32.9705 70.3579 33.0513 69.8785 33.0513C69.2403 33.0513 68.7141 32.9081 68.3 32.6219C67.8859 32.3328 67.6207 31.9162 67.5044 31.372L68.2319 31.1934C68.3255 31.5817 68.5085 31.8751 68.7808 32.0735C69.0559 32.2719 69.4176 32.3711 69.8657 32.3711C70.3678 32.3711 70.7692 32.2591 71.0698 32.0352C71.3705 31.8085 71.5208 31.525 71.5208 31.1849C71.5208 30.9214 71.4329 30.7003 71.257 30.5217C71.0812 30.3404 70.8145 30.2071 70.4571 30.1221L69.3892 29.867C68.8219 29.731 68.4021 29.5156 68.1298 29.2208C67.8575 28.9261 67.7214 28.5605 67.7214 28.124C67.7214 27.7641 67.8192 27.4481 68.015 27.176C68.2107 26.9011 68.4801 26.6857 68.8233 26.5298C69.1666 26.3739 69.558 26.296 69.9976 26.296C70.5961 26.296 71.0741 26.432 71.4315 26.7041C71.7917 26.9733 72.0512 27.3446 72.2101 27.8179Z" fill="#474A4F"/>
<path d="M78.6927 26.3852V27.0442H75.574V26.3852H78.6927ZM76.5483 24.8208H77.3099V31.2104C77.3099 31.4825 77.3567 31.6965 77.4503 31.8524C77.5439 32.0054 77.6659 32.1146 77.8162 32.1797C77.9665 32.2421 78.1268 32.2733 78.297 32.2733C78.3962 32.2733 78.4813 32.2676 78.5523 32.2563C78.6232 32.2421 78.6856 32.2279 78.7395 32.2138L78.9011 32.8982C78.8274 32.9266 78.7366 32.9521 78.6288 32.9747C78.5211 33.0002 78.3877 33.013 78.2289 33.013C77.9509 33.013 77.6829 32.9521 77.4248 32.8302C77.1695 32.7083 76.9596 32.5269 76.7951 32.286C76.6305 32.0451 76.5483 31.7461 76.5483 31.389V24.8208Z" fill="#474A4F"/>
<path d="M82.5777 32.9152V26.3852H83.3393V32.9152H82.5777ZM82.9649 25.2629C82.8089 25.2629 82.6756 25.2105 82.565 25.1056C82.4544 24.9979 82.399 24.8689 82.399 24.7187C82.399 24.5685 82.4544 24.441 82.565 24.3361C82.6756 24.2284 82.8089 24.1746 82.9649 24.1746C83.1209 24.1746 83.2542 24.2284 83.3649 24.3361C83.4755 24.441 83.5308 24.5685 83.5308 24.7187C83.5308 24.8689 83.4755 24.9979 83.3649 25.1056C83.2542 25.2105 83.1209 25.2629 82.9649 25.2629Z" fill="#474A4F"/>
<path d="M90.0517 33.0513C89.4674 33.0513 88.9582 32.9053 88.5242 32.6134C88.0931 32.3215 87.7584 31.9218 87.5201 31.4145C87.2819 30.9072 87.1627 30.329 87.1627 29.68C87.1627 29.0253 87.2833 28.4429 87.5244 27.9327C87.7683 27.4226 88.1059 27.0229 88.537 26.7338C88.9681 26.4419 89.4688 26.296 90.0389 26.296C90.4757 26.296 90.8714 26.381 91.226 26.551C91.5805 26.7183 91.8727 26.9549 92.1024 27.261C92.335 27.5643 92.4811 27.9185 92.5407 28.3238H91.7748C91.6954 27.9554 91.5039 27.6408 91.2004 27.38C90.8998 27.1165 90.5168 26.9847 90.0517 26.9847C89.6347 26.9847 89.266 27.098 88.9454 27.3248C88.6249 27.5487 88.3739 27.8619 88.1924 28.2643C88.0137 28.6639 87.9243 29.1273 87.9243 29.6545C87.9243 30.1845 88.0123 30.6535 88.1881 31.0617C88.364 31.4669 88.6107 31.7844 88.9284 32.0139C89.2489 32.2435 89.6234 32.3583 90.0517 32.3583C90.341 32.3583 90.6048 32.3044 90.843 32.1967C91.0841 32.0862 91.2855 31.9303 91.4472 31.7291C91.6117 31.5279 91.7223 31.2884 91.7791 31.0106H92.5449C92.4882 31.4046 92.3478 31.756 92.1237 32.065C91.9025 32.3711 91.6146 32.612 91.26 32.7877C90.9083 32.9634 90.5055 33.0513 90.0517 33.0513Z" fill="#474A4F"/>
<path d="M100.716 27.8179L100.022 28.0135C99.9539 27.8179 99.8575 27.6408 99.7327 27.4821C99.6079 27.3234 99.4448 27.1972 99.2434 27.1037C99.0449 27.0102 98.7981 26.9634 98.5031 26.9634C98.0606 26.9634 97.6975 27.0683 97.4139 27.278C97.1303 27.4877 96.9884 27.7584 96.9884 28.09C96.9884 28.3706 97.0849 28.5987 97.2777 28.7745C97.4735 28.9473 97.7741 29.0848 98.1797 29.1868L99.1668 29.4292C99.7143 29.5624 100.124 29.7735 100.396 30.0626C100.672 30.3517 100.809 30.7145 100.809 31.1509C100.809 31.5194 100.707 31.8467 100.503 32.133C100.299 32.4192 100.014 32.6446 99.6476 32.8089C99.2845 32.9705 98.8633 33.0513 98.384 33.0513C97.7458 33.0513 97.2196 32.9081 96.8055 32.6219C96.3914 32.3328 96.1262 31.9162 96.0099 31.372L96.7374 31.1934C96.831 31.5817 97.014 31.8751 97.2863 32.0735C97.5614 32.2719 97.923 32.3711 98.3712 32.3711C98.8733 32.3711 99.2746 32.2591 99.5753 32.0352C99.876 31.8085 100.026 31.525 100.026 31.1849C100.026 30.9214 99.9384 30.7003 99.7625 30.5217C99.5866 30.3404 99.32 30.2071 98.9626 30.1221L97.8947 29.867C97.3274 29.731 96.9076 29.5156 96.6353 29.2208C96.363 28.9261 96.2268 28.5605 96.2268 28.124C96.2268 27.7641 96.3247 27.4481 96.5204 27.176C96.7161 26.9011 96.9856 26.6857 97.3288 26.5298C97.672 26.3739 98.0635 26.296 98.5031 26.296C99.1016 26.296 99.5795 26.432 99.9369 26.7041C100.297 26.9733 100.557 27.3446 100.716 27.8179Z" fill="#474A4F"/>
</svg>
