<svg width="80" height="80" viewBox="0 0 80 80" fill="none" xmlns="http://www.w3.org/2000/svg">
<g filter="url(#filter0_d_1_114)">
<circle cx="36" cy="38" r="16" fill="#008DFB"/>
<path d="M27.2685 37.0543C27.3045 37.0363 27.3405 37.0192 27.3756 37.003C27.9854 36.7205 28.6033 36.456 29.2203 36.1915C29.2536 36.1915 29.3093 36.1528 29.3408 36.1402C29.3885 36.1195 29.4362 36.0997 29.4838 36.079C29.5756 36.0394 29.6673 36.0007 29.7582 35.9611C29.9417 35.8829 30.1242 35.8046 30.3077 35.7263L31.4059 35.2558C32.1381 34.9427 32.8711 34.6287 33.6033 34.3156C34.3354 34.0025 35.0684 33.6885 35.8006 33.3754C36.5327 33.0623 37.2657 32.7483 37.9979 32.4352C38.73 32.1221 39.4631 31.8081 40.1952 31.495C40.358 31.4249 40.5343 31.3205 40.7088 31.2899C40.8554 31.2638 40.9984 31.2134 41.1459 31.1855C41.4256 31.1325 41.7341 31.1109 42.0022 31.2269C42.0948 31.2674 42.1802 31.3241 42.2513 31.3952C42.5913 31.7317 42.5436 32.2841 42.4717 32.7573C41.9707 36.0556 41.4697 39.3548 40.9678 42.6531C40.8994 43.1056 40.8059 43.6023 40.4488 43.8884C40.1466 44.1304 39.7167 44.1574 39.3434 44.0548C38.9702 43.9514 38.641 43.7345 38.3181 43.5213C36.9788 42.6342 35.6387 41.7471 34.2994 40.86C33.981 40.6495 33.6266 40.3742 33.6302 39.9918C33.632 39.7615 33.7696 39.5563 33.91 39.3737C35.0738 37.855 36.7531 36.8113 38.0024 35.3628C38.1787 35.1586 38.3172 34.7897 38.0752 34.6719C37.9313 34.6017 37.7658 34.6971 37.6345 34.7879C35.9831 35.935 34.3327 37.0831 32.6813 38.2302C32.1426 38.6044 31.5777 38.9895 30.9283 39.0813C30.3473 39.1641 29.7627 39.0021 29.2005 38.8366C28.7292 38.698 28.2588 38.5559 27.7902 38.4092C27.5411 38.3318 27.2838 38.2482 27.0913 38.0727C26.8989 37.8973 26.7882 37.6022 26.9043 37.3683C26.9771 37.2216 27.1183 37.1289 27.2667 37.0534L27.2685 37.0543Z" fill="#FEFFFC"/>
</g>
<defs>
<filter id="filter0_d_1_114" x="0" y="0" width="80" height="80" filterUnits="userSpaceOnUse" color-interpolation-filters="sRGB">
<feFlood flood-opacity="0" result="BackgroundImageFix"/>
<feColorMatrix in="SourceAlpha" type="matrix" values="0 0 0 0 0 0 0 0 0 0 0 0 0 0 0 0 0 0 127 0" result="hardAlpha"/>
<feOffset dx="4" dy="2"/>
<feGaussianBlur stdDeviation="12"/>
<feComposite in2="hardAlpha" operator="out"/>
<feColorMatrix type="matrix" values="0 0 0 0 0.300347 0 0 0 0 0.354713 0 0 0 0 0.416667 0 0 0 0.16 0"/>
<feBlend mode="normal" in2="BackgroundImageFix" result="effect1_dropShadow_1_114"/>
<feBlend mode="normal" in="SourceGraphic" in2="effect1_dropShadow_1_114" result="shape"/>
</filter>
</defs>
</svg>
