<svg width="18" height="18" viewBox="0 0 18 18" fill="none" xmlns="http://www.w3.org/2000/svg">
<path d="M15.8001 3.91699H7.00026C6.33754 3.91699 5.80029 4.51395 5.80029 5.25033V10.5837C5.80029 11.32 6.33754 11.917 7.00026 11.917H15.8001C16.4628 11.917 17 11.32 17 10.5837V5.25033C17 4.51395 16.4628 3.91699 15.8001 3.91699Z" stroke="#474A4F" stroke-linejoin="round"/>
<path d="M9.00049 6.58301V9.24967M13.8005 6.58301V9.24967" stroke="#474A4F" stroke-linecap="round"/>
<path d="M13.7997 3.91667V1.25H8.99981V3.91667M16.9996 14.5833H4.19992C3.98775 14.5833 3.78428 14.4897 3.63425 14.323C3.48423 14.1563 3.39994 13.9302 3.39994 13.6944V3.47222C3.39994 3.23647 3.31566 3.01038 3.16563 2.84368C3.01561 2.67698 2.81213 2.58333 2.59996 2.58333H1M6.99985 17.25C6.6816 17.25 6.37639 17.1095 6.15135 16.8595C5.92631 16.6094 5.79988 16.2703 5.79988 15.9167V14.5833H8.19983V15.9167C8.19983 16.2703 8.0734 16.6094 7.84836 16.8595C7.62332 17.1095 7.31811 17.25 6.99985 17.25ZM14.1997 17.25C13.8814 17.25 13.5762 17.1095 13.3512 16.8595C13.1261 16.6094 12.9997 16.2703 12.9997 15.9167V14.5833H15.3997V15.9167C15.3997 16.2703 15.2732 16.6094 15.0482 16.8595C14.8231 17.1095 14.5179 17.25 14.1997 17.25Z" stroke="#474A4F" stroke-linecap="round" stroke-linejoin="round"/>
</svg>
