<svg width="32" height="32" viewBox="0 0 32 32" fill="none" xmlns="http://www.w3.org/2000/svg">
<circle cx="16" cy="16" r="16" fill="#02B06B" fill-opacity="0.937255"/>
<path d="M23.0508 8.91006C22.134 7.98399 21.042 7.24973 19.8384 6.75011C18.6349 6.25049 17.3439 5.99552 16.0408 6.00006C10.5808 6.00006 6.13078 10.4501 6.13078 15.9101C6.13078 17.6601 6.59078 19.3601 7.45078 20.8601L6.05078 26.0001L11.3008 24.6201C12.7508 25.4101 14.3808 25.8301 16.0408 25.8301C21.5008 25.8301 25.9508 21.3801 25.9508 15.9201C25.9508 13.2701 24.9208 10.7801 23.0508 8.91006ZM16.0408 24.1501C14.5608 24.1501 13.1108 23.7501 11.8408 23.0001L11.5408 22.8201L8.42078 23.6401L9.25078 20.6001L9.05078 20.2901C8.22853 18.977 7.79192 17.4593 7.79078 15.9101C7.79078 11.3701 11.4908 7.67006 16.0308 7.67006C18.2308 7.67006 20.3008 8.53006 21.8508 10.0901C22.6183 10.854 23.2265 11.7627 23.6402 12.7635C24.0539 13.7642 24.2648 14.8372 24.2608 15.9201C24.2808 20.4601 20.5808 24.1501 16.0408 24.1501ZM20.5608 17.9901C20.3108 17.8701 19.0908 17.2701 18.8708 17.1801C18.6408 17.1001 18.4808 17.0601 18.3108 17.3001C18.1408 17.5501 17.6708 18.1101 17.5308 18.2701C17.3908 18.4401 17.2408 18.4601 16.9908 18.3301C16.7408 18.2101 15.9408 17.9401 15.0008 17.1001C14.2608 16.4401 13.7708 15.6301 13.6208 15.3801C13.4808 15.1301 13.6008 15.0001 13.7308 14.8701C13.8408 14.7601 13.9808 14.5801 14.1008 14.4401C14.2208 14.3001 14.2708 14.1901 14.3508 14.0301C14.4308 13.8601 14.3908 13.7201 14.3308 13.6001C14.2708 13.4801 13.7708 12.2601 13.5708 11.7601C13.3708 11.2801 13.1608 11.3401 13.0108 11.3301H12.5308C12.3608 11.3301 12.1008 11.3901 11.8708 11.6401C11.6508 11.8901 11.0108 12.4901 11.0108 13.7101C11.0108 14.9301 11.9008 16.1101 12.0208 16.2701C12.1408 16.4401 13.7708 18.9401 16.2508 20.0101C16.8408 20.2701 17.3008 20.4201 17.6608 20.5301C18.2508 20.7201 18.7908 20.6901 19.2208 20.6301C19.7008 20.5601 20.6908 20.0301 20.8908 19.4501C21.1008 18.8701 21.1008 18.3801 21.0308 18.2701C20.9608 18.1601 20.8108 18.1101 20.5608 17.9901Z" fill="white"/>
</svg>
